<svg width="5" height="5" viewBox="0 0 5 5" fill="none" xmlns="http://www.w3.org/2000/svg">
<path d="M1.51102 1.14053H4.06449C4.19994 1.14053 4.32984 1.08673 4.42561 0.990952C4.52138 0.895178 4.57519 0.76528 4.57519 0.629835C4.57519 0.494391 4.52138 0.364494 4.42561 0.26872C4.32984 0.172946 4.19994 0.119141 4.06449 0.119141H1.51102C1.37557 0.119141 1.24568 0.172946 1.1499 0.26872C1.05413 0.364494 1.00032 0.494391 1.00032 0.629835C1.00032 0.76528 1.05413 0.895178 1.1499 0.990952C1.24568 1.08673 1.37557 1.14053 1.51102 1.14053ZM1.48676 3.05564H4.04024C4.17568 3.05564 4.30558 3.00183 4.40135 2.90606C4.49713 2.81028 4.55093 2.68039 4.55093 2.54494C4.55093 2.4095 4.49713 2.2796 4.40135 2.18383C4.30558 2.08805 4.17568 2.03425 4.04024 2.03425H1.48676C1.35132 2.03425 1.22142 2.08805 1.12565 2.18383C1.02987 2.2796 0.976067 2.4095 0.976067 2.54494C0.976067 2.68039 1.02987 2.81028 1.12565 2.90606C1.22142 3.00183 1.35132 3.05564 1.48676 3.05564ZM1.37569 4.97074H3.92916C4.0646 4.97074 4.1945 4.91694 4.29028 4.82116C4.38605 4.72539 4.43986 4.59549 4.43986 4.46005C4.43986 4.3246 4.38605 4.19471 4.29028 4.09893C4.1945 4.00316 4.0646 3.94935 3.92916 3.94935H1.37569C1.24024 3.94935 1.11034 4.00316 1.01457 4.09893C0.918796 4.19471 0.86499 4.3246 0.86499 4.46005C0.86499 4.59549 0.918796 4.72539 1.01457 4.82116C1.11034 4.91694 1.24024 4.97074 1.37569 4.97074Z" fill="black"/>
</svg>
